<svg xmlns="http://www.w3.org/2000/svg" width="15.861" height="20.198" viewBox="0 0 15.861 20.198"><g transform="translate(159 158.648)"><rect width="0.103" height="0.013" transform="translate(-155.063 -154.622)" fill="#fff"/><rect width="7.781" height="8.049" transform="translate(-154.962 -154.608)" fill="#f9b42a"/><rect width="0.031" height="0.015" transform="translate(-147.181 -146.559)" fill="#fff"/><rect width="0.106" height="0.013" transform="translate(-147.181 -154.622)" fill="#fff"/><rect width="3.145" height="0.015" transform="translate(-159 -154.623)" fill="#fff"/><rect width="0.103" height="0.015" transform="translate(-155.063 -154.623)" fill="#fff"/><rect width="0.103" height="0.015" transform="translate(-155.063 -154.623)" fill="#fff"/><rect width="0.104" height="0.015" transform="translate(-147.179 -154.623)" fill="#fff"/><rect width="0.104" height="0.015" transform="translate(-147.179 -154.623)" fill="#fff"/><rect width="0.104" height="0.015" transform="translate(-147.179 -154.623)" fill="#fff"/><rect width="0.031" height="0.015" transform="translate(-147.181 -146.559)" fill="#fff"/><rect width="3.145" height="0.015" transform="translate(-159 -154.623)" fill="#fff"/><rect width="0.103" height="0.015" transform="translate(-155.063 -154.623)" fill="#fff"/><path d="M14.565,0V16.128H2.743v-4.04h7.781V12.1h.031v-.015h-.031V4.04h.1V4.025h-.1V4.04H2.743V4.025h-.1V0Z" transform="translate(-157.705 -158.648)" fill="#fff"/><path d="M4.039,2.715v8.064H0V2.715H3.145V2.7h.792v.015Z" transform="translate(-159 -157.323)" fill="#fff"/><rect width="0.031" height="0.015" transform="translate(-147.181 -146.559)" fill="#fff"/><rect width="0.031" height="0.015" transform="translate(-147.181 -146.559)" fill="#fff"/><rect width="4.04" height="4.04" transform="translate(-159 -142.49)" fill="#fff"/></g></svg>