<svg xmlns="http://www.w3.org/2000/svg" width="138.962" height="14.563" viewBox="0 0 138.962 14.563"><path d="M75.276,6.737A6.8,6.8,0,0,1,82.327,0a7.4,7.4,0,0,1,5.1,2.057L86.1,3.71a5.182,5.182,0,0,0-3.727-1.7,4.718,4.718,0,1,0,0,9.436A5.492,5.492,0,0,0,86.1,9.851l1.342,1.506a7.607,7.607,0,0,1-5.186,2.206A6.8,6.8,0,0,1,75.276,6.737Zm53.677,6.722V.043h9.005l-.015,2.042h-6.724v3.86H137.3V7.958h-6.081v5.5Zm-26.01,0V7.9h-7.11v5.558H93.567V.043h2.266V5.871h7.11V.043h2.266V13.459Zm-58.267,0V.043H55.168V2.728h-7.1V5.395h6.412V8.078H48.073v2.7h7.3v2.683Zm-27.815,0V.043h3.413V13.459ZM0,13.459V.043H5.843c3.43,0,5.4,1.7,5.4,4.682,0,3.144-1.968,4.964-5.4,4.964H3.415v3.77ZM3.415,7H5.666c1.506,0,2.355-.745,2.355-2.16s-.85-2.117-2.355-2.117H3.415Zm109.141,6.453V.042h9.571V2.084h-7.3V5.708h6.544V7.736h-6.544v3.7h7.542v2.026Zm-51.142,0V.042h3.414V10.611h5.681v2.847Zm-26.132,0L32.393,9.2,29.5,13.458H25.536L30.319,6.6,25.833.042H29.8l2.594,3.922L34.987.042h3.994L34.554,6.454l4.813,7Z" transform="translate(0.5 0.5)" fill="#020202" stroke="rgba(0,0,0,0)" stroke-miterlimit="10" stroke-width="1"/></svg>